<svg xmlns="http://www.w3.org/2000/svg" viewBox="0 0 88 100" width="88" height="100"><path fill="none" stroke="#fff" stroke-width="2" stroke-linecap="round" stroke-linejoin="round" stroke-miterlimit="10" d="M44 2v32m6.9 0H44m-13.9-8V10m7 16h-7m20.4 0h7.4m0 24V26m6.9 24h-6.9m6.9-8h6.9m6.9 24h-6.9m0-24v24m0 8v8m-6.9-8h6.9m6.9-16h7m-34.7 0h7m0 32V58M37.1 74H44m0 24V74m6.5-8H44m0-24v24m-6.9-24H44m-20.8-8h6.9m0 24V34m7 24h-7m0 8v24M9.4 50h6.9m0 24V50m62.3-16h-6.9m0-16v16M9.4 58H3m20.2-16h-6.9m13.8 24h-6.9m62.4-16V26M44 2l41.6 24M37.1 6L2.4 26m0 32V26m0 40v8M44 98L2.4 74m83.2 0L50.9 94m34.7-36v16M16.3 42V18m0 56h6.9"/></svg>